<svg width="23" height="20" viewBox="0 0 23 20" fill="none" xmlns="http://www.w3.org/2000/svg">
<path d="M7.39496 15.3504C6.20232 15.3504 5.23737 16.2049 5.23737 17.2494C5.23737 18.2939 6.20232 19.1484 7.39496 19.1484C8.58761 19.1484 9.5634 18.2939 9.5634 17.2494C9.5634 16.2049 8.58761 15.3504 7.39496 15.3504ZM0.889648 0.158325V2.05733H3.05809L6.96128 9.26407L5.49758 11.5904C5.32411 11.8562 5.22653 12.1696 5.22653 12.5019C5.22653 13.5463 6.20232 14.4009 7.39496 14.4009H20.4056V12.5019H7.85034C7.69855 12.5019 7.57928 12.3974 7.57928 12.2645L7.61181 12.1506L8.58761 10.6029H16.665C17.4782 10.6029 18.1938 10.2136 18.5624 9.62488L22.4439 3.4626C22.5307 3.32967 22.574 3.16825 22.574 3.00684C22.574 2.48461 22.0861 2.05733 21.4898 2.05733H5.45421L4.43505 0.158325H0.889648ZM18.2372 15.3504C17.0445 15.3504 16.0796 16.2049 16.0796 17.2494C16.0796 18.2939 17.0445 19.1484 18.2372 19.1484C19.4298 19.1484 20.4056 18.2939 20.4056 17.2494C20.4056 16.2049 19.4298 15.3504 18.2372 15.3504Z" fill="black"/>
</svg>
