<svg width="33" height="30" viewBox="0 0 33 30" fill="none" xmlns="http://www.w3.org/2000/svg">
<path d="M10.0787 23.3753C8.32347 23.3753 6.90333 24.6537 6.90333 26.2163C6.90333 27.7788 8.32347 29.0572 10.0787 29.0572C11.8339 29.0572 13.27 27.7788 13.27 26.2163C13.27 24.6537 11.8339 23.3753 10.0787 23.3753ZM0.504761 0.647705V3.48866H3.69607L9.44042 14.2701L7.28629 17.7502C7.03099 18.148 6.88738 18.6167 6.88738 19.1139C6.88738 20.6764 8.32347 21.9548 10.0787 21.9548H29.2265V19.1139H10.7489C10.5255 19.1139 10.3499 18.9576 10.3499 18.7588L10.3978 18.5883L11.8339 16.2729H23.7215C24.9183 16.2729 25.9714 15.6905 26.5139 14.8098L32.2264 5.59096C32.354 5.39209 32.4178 5.15061 32.4178 4.90913C32.4178 4.12787 31.6998 3.48866 30.8222 3.48866H7.22247L5.72255 0.647705H0.504761ZM26.0352 23.3753C24.28 23.3753 22.8599 24.6537 22.8599 26.2163C22.8599 27.7788 24.28 29.0572 26.0352 29.0572C27.7904 29.0572 29.2265 27.7788 29.2265 26.2163C29.2265 24.6537 27.7904 23.3753 26.0352 23.3753Z" fill="#F8F8F5"/>
</svg>
