<?xml version="1.0" encoding="utf-8"?>
<!-- Generator: Adobe Illustrator 24.0.3, SVG Export Plug-In . SVG Version: 6.00 Build 0)  -->
<svg version="1.1" id="Layer_1" xmlns="http://www.w3.org/2000/svg" xmlns:xlink="http://www.w3.org/1999/xlink" x="0px" y="0px"
	 viewBox="0 0 33 30" style="enable-background:new 0 0 33 30;" xml:space="preserve">
<style type="text/css">
	.st0{fill:#DB3125;}
</style>
<path class="st0" d="M10.1,23.4c-1.8,0-3.2,1.3-3.2,2.8c0,1.6,1.4,2.8,3.2,2.8c1.8,0,3.2-1.3,3.2-2.8C13.3,24.7,11.8,23.4,10.1,23.4
	z M0.5,0.6v2.8h3.2l5.7,10.8l-2.2,3.5c-0.3,0.4-0.4,0.9-0.4,1.4c0,1.6,1.4,2.8,3.2,2.8h19.1v-2.8H10.7c-0.2,0-0.4-0.2-0.4-0.4l0-0.2
	l1.4-2.3h11.9c1.2,0,2.2-0.6,2.8-1.5l5.7-9.2c0.1-0.2,0.2-0.4,0.2-0.7c0-0.8-0.7-1.4-1.6-1.4H7.2L5.7,0.6H0.5z M26,23.4
	c-1.8,0-3.2,1.3-3.2,2.8c0,1.6,1.4,2.8,3.2,2.8s3.2-1.3,3.2-2.8C29.2,24.7,27.8,23.4,26,23.4z"/>
</svg>
